<svg xmlns="http://www.w3.org/2000/svg" viewBox="0 0 512 512" width="100%" height="100%">
  <defs>
    <linearGradient id="bgGradFavF" x1="0%" y1="0%" x2="100%" y2="100%">
      <stop offset="0%" stop-color="#0F172A" />
      <stop offset="50%" stop-color="#090D16" />
      <stop offset="100%" stop-color="#020617" />
    </linearGradient>

    <linearGradient id="backBubbleGradFavF" x1="0%" y1="0%" x2="100%" y2="100%">
      <stop offset="0%" stop-color="#06B6D4" />
      <stop offset="100%" stop-color="#4F46E5" />
    </linearGradient>

    <linearGradient id="frontBubbleGradFavF" x1="0%" y1="0%" x2="100%" y2="100%">
      <stop offset="0%" stop-color="#8B5CF6" />
      <stop offset="60%" stop-color="#EC4899" />
      <stop offset="100%" stop-color="#F43F5E" />
    </linearGradient>

    <filter id="ambientGlowFavF" x="-20%" y="-20%" width="140%" height="140%">
      <feGaussianBlur stdDeviation="24" result="blur" />
      <feComposite in="SourceGraphic" in2="blur" operator="over" />
    </filter>

    <filter id="dropShadowFavF" x="-20%" y="-20%" width="140%" height="140%">
      <feDropShadow dx="0" dy="12" stdDeviation="16" flood-color="#000000" flood-opacity="0.6" />
    </filter>
  </defs>

  <rect width="512" height="512" rx="116" fill="url(#bgGradFavF)" />

  <circle cx="270" cy="270" r="130" fill="#EC4899" opacity="0.22" filter="url(#ambientGlowFavF)" />
  <circle cx="210" cy="200" r="100" fill="#06B6D4" opacity="0.20" filter="url(#ambientGlowFavF)" />

  <g filter="url(#dropShadowFavF)">
    <path d="M 140 140 H 290 C 325 140, 350 165, 350 200 V 220 C 350 255, 325 280, 290 280 H 190 L 130 320 V 280 H 140 C 105 280, 80 255, 80 220 V 200 C 80 165, 105 140, 140 140 Z" fill="url(#backBubbleGradFavF)" opacity="0.9" />
  </g>

  <g filter="url(#dropShadowFavF)">
    <path d="M 220 220 H 370 C 405 220, 430 245, 430 280 V 310 C 430 345, 405 370, 370 370 H 360 V 415 L 300 370 H 220 C 185 370, 160 345, 160 310 V 280 C 160 245, 185 220, 220 220 Z" fill="url(#frontBubbleGradFavF)" />
  </g>

  <circle cx="245" cy="295" r="15" fill="#FFFFFF" opacity="0.95" />
  <circle cx="295" cy="295" r="15" fill="#FFFFFF" opacity="0.95" />
  <circle cx="345" cy="295" r="15" fill="#FFFFFF" opacity="0.95" />

  <circle cx="410" cy="205" r="4" fill="#38BDF8" opacity="0.8" />
</svg>